# xmcd
# 
# Track frame offsets:
#     150
#     21122
#     41997
#     62145
#     82785
#     103655
#     121942
#     138635
#     155835
#     175960
# 
# Disc length: 2624
# 
# Revision: 1
# Processed by: cddbd v1.5.2PL0 Copyright (c) Steve Scherf et al.
# Submitted via: BonkEnc v1.0.15
# 
DISCID=870a3e0a
DTITLE=ERIC DIHAL - De toi à moi
DYEAR=2000
DGENRE=ZOUK
TTITLE0=01 Toi
TTITLE1=02 Flè
TTITLE2=03 Danser
TTITLE3=04 Eternel
TTITLE4=05 An tan la sa
TTITLE5=06 Mové Nouvèl
TTITLE6=07 Enfanc en nou
TTITLE7=08 Ti Bob
TTITLE8=09 Danser Instrumental
TTITLE9=10 An tan la sa Instrumental
EXTD=
EXTT0=
EXTT1=
EXTT2=
EXTT3=
EXTT4=
EXTT5=
EXTT6=
EXTT7=
EXTT8=
EXTT9=
PLAYORDER=
